# xmcd
#
# Track frame offsets:
#	150
#	17948
#	43349
#	61586
#	96339
#	121611
#	141815
#	165179
#	184525
#	207390
#
# Disc length: 3153 seconds
#
# Revision: 1
# Processed by: cddbd v1.5PL3 Copyright (c) Steve Scherf et al.
# Submitted via: CDRider 2.0
#
DISCID=7f0c4f0a
DTITLE=Old Blue Moses - One Notch Down
DYEAR=2003
DGENRE=Blues
TTITLE0=Slippin' Out
TTITLE1=Devils Highway
TTITLE2=The Letter
TTITLE3=Stormy Monday
TTITLE4=House Of The Rising Sun
TTITLE5=Key To The Highway
TTITLE6=Dead Flowers
TTITLE7=Six Days On The Road
TTITLE8=Need Your Love So Bad
TTITLE9=White Room
EXTD=
EXTT0=
EXTT1=
EXTT2=
EXTT3=
EXTT4=
EXTT5=
EXTT6=
EXTT7=
EXTT8=
EXTT9=
PLAYORDER=
